<?xml version="1.0" encoding="UTF-8"?>
<svg width="826px" height="322px" viewBox="0 0 826 322" version="1.1" xmlns="http://www.w3.org/2000/svg" xmlns:xlink="http://www.w3.org/1999/xlink">
    <!-- Generator: Sketch 55.2 (78181) - https://sketchapp.com -->
    <title>Group</title>
    <desc>Created with Sketch.</desc>
    <g id="Page-1" stroke="none" stroke-width="1" fill="none" fill-rule="evenodd">
        <g id="Group">
            <rect id="Rectangle" stroke="#FFFFFF" stroke-width="13" x="6.5" y="6.5" width="813" height="309"></rect>
            <path d="M181.797342,89 C200.712165,89 215.641141,94.4869979 226.584718,105.461158 C237.528294,116.435319 243,132.155736 243,152.622881 L243,232 L222.734219,232 L222.734219,193.018362 L140.860465,193.018362 L140.860465,232 L121,232 L121,152.622881 C121,132.155736 126.471706,116.435319 137.415282,105.461158 C148.358859,94.4869979 163.152731,89 181.797342,89 Z M223,176 L223,151.168142 C223,136.648895 219.380399,125.657854 212.141089,118.19469 C204.901779,110.731526 194.85485,107 182,107 C169.14515,107 159.098221,110.731526 151.858911,118.19469 C144.619601,125.657854 141,136.648895 141,151.168142 L141,176 L223,176 Z M382.409938,160.689944 L401.78882,160.689944 L401.78882,232.379888 L384.024845,232.379888 L384.024845,222.861732 C373.662474,230.287281 360.541487,234 344.661491,234 C331.876748,234 320.000572,231.164833 309.032609,225.494413 C298.064645,219.823994 289.31732,211.554756 282.790373,200.686453 C276.263425,189.818149 273,176.95864 273,162.107542 C273,148.066503 276.263425,135.510763 282.790373,124.439944 C289.31732,113.369125 298.333793,104.694864 309.840062,98.4168994 C321.346331,92.1389351 334.2991,89 348.698758,89 C360.003162,89 370.264447,90.8563595 379.482919,94.5691341 C388.701392,98.2819087 396.54034,103.715979 403,110.871508 L390.484472,123.427374 C379.180068,112.491565 365.520784,107.023743 349.506211,107.023743 C338.740112,107.023743 329.084411,109.386382 320.53882,114.111732 C311.993228,118.837081 305.298161,125.384967 300.453416,133.755587 C295.608671,142.126206 293.186335,151.576763 293.186335,162.107542 C293.186335,173.313371 295.642315,183.033944 300.554348,191.269553 C305.466381,199.505162 311.959587,205.74928 320.034161,210.002095 C328.108736,214.25491 336.856061,216.381285 346.276398,216.381285 C352.870633,216.381285 359.296553,215.267469 365.554348,213.039804 C371.812143,210.81214 377.430617,207.538197 382.409938,203.217877 L382.409938,160.689944 Z M496.083186,91 C514.377083,91 528.769859,95.3951941 539.261947,104.185714 C549.754035,112.976234 555,125.079923 555,140.497143 C555,155.914363 549.754035,168.018051 539.261947,176.808571 C528.769859,185.599092 514.377083,189.994286 496.083186,189.994286 L461.176991,189.994286 L461.176991,233 L441,233 L441,91 L496.083186,91 Z M495.465753,172 C508.306,172 518.104989,169.248435 524.863014,163.745223 C531.621038,158.242011 535,150.327016 535,140 C535,129.672984 531.621038,121.757989 524.863014,116.254777 C518.104989,110.751565 508.306,108 495.465753,108 L461,108 L461,172 L495.465753,172 Z M649.929356,234 C635.753461,234 622.961596,230.861065 611.553375,224.583101 C600.145155,218.305136 591.200974,209.664627 584.720565,198.661313 C578.240156,187.657999 575,175.271019 575,161.5 C575,147.728981 578.240156,135.342001 584.720565,124.338687 C591.200974,113.335373 600.178907,104.694864 611.654631,98.4168994 C623.130356,92.1389351 635.955973,89 650.131868,89 C661.202567,89 671.328055,90.8563595 680.508634,94.5691341 C689.689214,98.2819087 697.519591,103.783483 704,111.074022 L690.836735,123.832402 C680.171061,112.626573 666.872921,107.023743 650.941915,107.023743 C640.41125,107.023743 630.893292,109.386382 622.387755,114.111732 C613.882218,118.837081 607.233148,125.351215 602.440345,133.65433 C597.647543,141.957444 595.251177,151.239241 595.251177,161.5 C595.251177,171.760759 597.647543,181.042556 602.440345,189.34567 C607.233148,197.648785 613.882218,204.162919 622.387755,208.888268 C630.893292,213.613618 640.41125,215.976257 650.941915,215.976257 C666.737913,215.976257 680.036053,210.305923 690.836735,198.965084 L704,211.723464 C697.519591,219.014003 689.655462,224.549329 680.407378,228.329609 C671.159294,232.109889 661.000055,234 649.929356,234 Z" id="AGPC" fill="#FFFFFF" fill-rule="nonzero"></path>
        </g>
    </g>
</svg>